# xmcd
#
# Track frame offsets: 
#        150
#        11796
#        14791
#        26855
#        35562
#        50615
#        64546
#        75914
#        84941
#        96615
#        106687
#        115108
#        128956
#        139613
#
# Disc length: 2010 seconds
#
# Revision: 0
# Processed by: cddbd v1.5.1PL2 Copyright (c) Steve Scherf et al.
# Submitted via: ExactAudioCopy v0.95b4
#
DISCID=b407d80e
DTITLE=Pulse Creek - Pulse Creek
DYEAR=1980
DGENRE=Bluegrass
TTITLE0=Old Crane Press
TTITLE1=I'll Fly Away
TTITLE2=Comin' Home to Jesus
TTITLE3=Nobody Knows
TTITLE4=The Hey Boys
TTITLE5=Runnin' Through Our Minds
TTITLE6=My Oklahoma
TTITLE7=Don't You Cry
TTITLE8=Lonesome Fiddle Blues
TTITLE9=Is That Any Way to Love You
TTITLE10=I've Just Seen a Face
TTITLE11=Dancin' With the Angels
TTITLE12=For What It's Worth
TTITLE13=Homeward Bound
EXTD=
EXTT0=
EXTT1=
EXTT2=
EXTT3=
EXTT4=
EXTT5=
EXTT6=
EXTT7=
EXTT8=
EXTT9=
EXTT10=
EXTT11=
EXTT12=
EXTT13=
PLAYORDER=
